<?xml version="1.0" encoding="UTF-8"?>
<svg xmlns="http://www.w3.org/2000/svg" version="1.1" x="0" y="0" height="128" width="128" viewBox="0 0 100 100"><path d="m21.8 22.8v17.5c0 37.4 25.5 46.8 28.2 47.7 2.7-0.892 28.2-10.3 28.2-47.7v-17.5c-1.9-1.7-12.9-10.8-28.2-10.8s-26.3 9.11-28.2 10.8z" stroke="#000" stroke-width="2" fill="none"/><path d="m22.7 52.7c30.6-18.2 52.2 9.86 52.2 9.86" stroke="#000" stroke-width="1px" fill="none"/><path d="m77.5 50.3c-16.8-16-28.3-3.3-28.3-3.3" stroke="#000" stroke-width="1px" fill="none"/><path d="m38.2 20.1c-3 0-5.56 1.71-6.86 4.19-3.11 0.303-5.54 2.95-5.54 6.14 0 3.42 2.78 6.2 6.2 6.2h13.4c2.84 0 5.15-2.31 5.15-5.18 0-2.73-2.12-4.96-4.79-5.12-0.744-3.53-3.83-6.23-7.6-6.23z" stroke="#000" fill="none"/></svg>
